# xmcd
#
# Track frame offsets: 
#        150
#        29029
#        64432
#        99728
#        127607
#        168564
#        205652
#        252056
#        288398
#
# Disc length: 4292 seconds
#
# Revision: 2
# Processed by: cddbd v1.5.2PL0 Copyright (c) Steve Scherf et al.
# Submitted via: ExactAudioCopyFreeDBPlugin 1.0
#
DISCID=8010c209
DTITLE=Die drei Fragezeichen Kids - Monster in Rocky Beach
DYEAR=2015
DGENRE=Hörspiel
TTITLE0=Bigfoot
TTITLE1=Reporterarbeit
TTITLE2=Monsterjagd
TTITLE3=Yeti-Alarm
TTITLE4=Browny
TTITLE5=Minimonster
TTITLE6=Superstar
TTITLE7=Verdachtsmomente
TTITLE8=Letzte Kapitel
EXTD=YEAR: 2015
EXTT0=
EXTT1=
EXTT2=
EXTT3=
EXTT4=
EXTT5=
EXTT6=
EXTT7=
EXTT8=
PLAYORDER=
